<?xml version="1.0" standalone="no"?>
<!DOCTYPE svg PUBLIC "-//W3C//DTD SVG 20010904//EN"
 "http://www.w3.org/TR/2001/REC-SVG-20010904/DTD/svg10.dtd">
<svg version="1.0" xmlns="http://www.w3.org/2000/svg"
 width="1200.000000pt" height="1200.000000pt" viewBox="0 0 1200.000000 1200.000000"
 preserveAspectRatio="xMidYMid meet">
<metadata>
Created by potrace 1.11, written by Peter Selinger 2001-2013
</metadata>
<g transform="translate(0.000000,1200.000000) scale(0.100000,-0.100000)"
fill="#000000" stroke="none">
<path d="M5718 11995 c-2 -2 -52 -6 -113 -9 -60 -3 -128 -8 -150 -11 -22 -2
-62 -7 -90 -9 -27 -3 -68 -7 -90 -10 -22 -3 -58 -8 -80 -10 -35 -4 -91 -13
-200 -31 -35 -6 -95 -17 -110 -21 -5 -1 -28 -5 -51 -8 -22 -4 -55 -11 -72 -16
-18 -5 -32 -7 -32 -5 0 2 -18 -2 -40 -10 -22 -8 -40 -13 -40 -11 0 2 -51 -9
-112 -25 -62 -16 -120 -31 -128 -33 -203 -52 -620 -203 -855 -309 -164 -75
-448 -222 -590 -307 -125 -74 -472 -303 -485 -319 -3 -4 -18 -15 -33 -24 -16
-10 -38 -27 -50 -37 -12 -10 -69 -55 -127 -101 -58 -45 -107 -85 -110 -88 -3
-3 -34 -31 -70 -61 -184 -155 -508 -481 -646 -650 -16 -19 -31 -37 -34 -40 -3
-3 -29 -34 -58 -70 -29 -36 -57 -71 -63 -78 -42 -51 -198 -266 -256 -352 -69
-104 -223 -348 -223 -355 0 -2 -20 -38 -45 -80 -39 -65 -208 -403 -258 -515
-54 -120 -138 -343 -198 -520 -62 -186 -159 -540 -173 -631 -3 -20 -8 -42 -10
-50 -6 -16 -10 -34 -37 -194 -28 -166 -27 -160 -39 -255 -6 -47 -12 -98 -14
-115 -2 -16 -7 -68 -11 -115 -5 -47 -10 -98 -12 -115 -6 -47 -11 -696 -6 -732
4 -22 10 -31 22 -28 9 1 95 6 191 10 96 4 209 8 250 10 41 2 154 6 250 10 96
4 204 8 240 10 36 2 146 6 245 10 99 4 204 8 233 10 28 1 52 -1 53 -4 0 -3 2
-14 4 -23 2 -10 6 -57 9 -105 4 -49 8 -98 10 -109 2 -11 7 -47 10 -80 4 -32
10 -81 16 -109 5 -27 12 -67 15 -88 9 -69 35 -189 70 -327 189 -751 575 -1449
1110 -2008 141 -148 277 -276 380 -359 22 -18 70 -56 106 -85 36 -29 94 -73
129 -98 34 -25 74 -54 87 -65 l24 -20 -73 -112 c-40 -62 -104 -161 -143 -220
-38 -60 -92 -144 -121 -188 -29 -44 -133 -206 -233 -360 -99 -154 -187 -289
-196 -300 -8 -10 -15 -22 -15 -27 0 -16 273 -187 455 -285 424 -229 865 -407
1300 -524 106 -29 127 -34 170 -43 11 -2 38 -9 60 -15 48 -13 263 -55 360 -72
78 -12 77 -12 160 -23 33 -4 74 -9 90 -12 17 -2 59 -6 95 -10 36 -3 76 -7 90
-10 147 -24 930 -24 1080 0 14 2 59 7 100 11 63 5 127 14 370 49 58 9 255 50
386 81 457 109 931 287 1362 511 285 148 659 384 646 407 -4 7 -35 53 -69 102
-34 50 -145 214 -247 365 -102 151 -253 376 -336 499 l-151 224 107 80 c59 44
123 94 143 111 19 17 64 56 100 86 53 46 193 176 233 216 145 149 257 275 373
424 103 133 263 363 263 379 0 6 4 11 9 11 5 0 11 8 15 18 3 9 15 31 26 47 11
17 23 36 27 44 3 8 30 56 58 105 125 223 254 521 339 784 31 95 91 311 101
362 2 8 14 69 28 135 14 66 28 140 31 165 3 25 8 56 11 70 3 14 7 50 11 80 3
30 7 66 9 80 3 14 8 61 11 105 4 44 8 91 9 105 1 14 3 36 3 50 2 24 5 25 55
24 28 -1 149 -5 267 -8 118 -4 285 -9 370 -11 85 -3 247 -7 360 -10 113 -3
255 -7 317 -9 88 -4 112 -2 117 9 6 16 -1 609 -8 675 -3 25 -8 77 -11 115 -3
39 -7 84 -9 100 -2 17 -7 57 -10 90 -4 33 -9 71 -11 85 -2 14 -7 45 -10 70 -6
46 -31 196 -40 240 -3 14 -8 39 -10 55 -43 240 -208 810 -286 982 -10 23 -19
45 -19 49 0 22 -139 329 -230 509 -118 232 -227 421 -363 625 -77 115 -249
354 -267 370 -3 3 -32 39 -65 80 -32 41 -64 80 -70 86 -5 6 -27 32 -49 58
-180 217 -531 556 -801 772 -184 148 -578 424 -605 424 -5 0 -10 5 -10 10 0 6
-4 10 -9 10 -5 0 -56 28 -113 62 -123 74 -442 236 -588 301 -321 141 -790 297
-1054 351 -11 3 -84 18 -161 34 -119 25 -189 38 -310 57 -18 2 -142 18 -235
30 -19 2 -69 7 -110 11 -41 3 -93 8 -115 11 -47 5 -702 13 -707 8z"/>
</g>
</svg>
